<svg width="29" height="29" viewBox="0 0 29 29" fill="none" xmlns="http://www.w3.org/2000/svg">
<path d="M14.2285 26.0005C20.5798 26.0005 25.7285 20.8518 25.7285 14.5005C25.7285 8.14921 20.5798 3.00049 14.2285 3.00049C7.87724 3.00049 2.72852 8.14921 2.72852 14.5005C2.72852 20.8518 7.87724 26.0005 14.2285 26.0005Z" stroke="#F5F5F5" stroke-width="2.76" stroke-linecap="round" stroke-linejoin="round"/>
<path d="M14.2285 21.4005C18.0393 21.4005 21.1285 18.3113 21.1285 14.5005C21.1285 10.6897 18.0393 7.60049 14.2285 7.60049C10.4178 7.60049 7.32852 10.6897 7.32852 14.5005C7.32852 18.3113 10.4178 21.4005 14.2285 21.4005Z" stroke="#F5F5F5" stroke-width="2.76" stroke-linecap="round" stroke-linejoin="round"/>
<path d="M14.2285 16.8005C15.4988 16.8005 16.5285 15.7707 16.5285 14.5005C16.5285 13.2302 15.4988 12.2005 14.2285 12.2005C12.9583 12.2005 11.9285 13.2302 11.9285 14.5005C11.9285 15.7707 12.9583 16.8005 14.2285 16.8005Z" stroke="#F5F5F5" stroke-width="2.76" stroke-linecap="round" stroke-linejoin="round"/>
</svg>
