<svg width="28" height="29" viewBox="0 0 28 29" fill="none" xmlns="http://www.w3.org/2000/svg">
<g clip-path="url(#clip0_526_180)">
<path d="M12.0858 5.13938L2.34533 21.4004C2.1445 21.7482 2.03824 22.1425 2.03712 22.5441C2.03599 22.9457 2.14005 23.3406 2.33892 23.6895C2.5378 24.0384 2.82457 24.3291 3.1707 24.5328C3.51682 24.7365 3.91025 24.846 4.31183 24.8504H23.7928C24.1944 24.846 24.5878 24.7365 24.934 24.5328C25.2801 24.3291 25.5669 24.0384 25.7657 23.6895C25.9646 23.3406 26.0687 22.9457 26.0675 22.5441C26.0664 22.1425 25.9602 21.7482 25.7593 21.4004L16.0188 5.13938C15.8138 4.8014 15.5252 4.52197 15.1807 4.32804C14.8363 4.13411 14.4476 4.03223 14.0523 4.03223C13.657 4.03223 13.2684 4.13411 12.924 4.32804C12.5795 4.52197 12.2908 4.8014 12.0858 5.13938Z" stroke="#F5F5F5" stroke-width="2.76" stroke-linecap="round" stroke-linejoin="round"/>
</g>
<defs>
<clipPath id="clip0_526_180">
<rect width="27.6" height="27.6" fill="white" transform="translate(0.25 0.700195)"/>
</clipPath>
</defs>
</svg>
