<svg fill="none" height="524" viewBox="0 0 1440 524" width="1440" preserveAspectRatio="none" xmlns="http://www.w3.org/2000/svg" xmlns:xlink="http://www.w3.org/1999/xlink"><linearGradient id="a"><stop offset="0" stop-color="#6848d3"/><stop offset="1" stop-color="#0f8686" stop-opacity="0"/></linearGradient><linearGradient id="b" gradientUnits="userSpaceOnUse" x1="854.437" x2="640.744" xlink:href="#a" y1="155.173" y2="952.684"/><linearGradient id="c" gradientUnits="userSpaceOnUse" x1="850.374" x2="646.665" xlink:href="#a" y1="172.787" y2="933.038"/><linearGradient id="d" gradientUnits="userSpaceOnUse" x1="846.603" x2="651.274" xlink:href="#a" y1="184.061" y2="913.042"/><linearGradient id="e" gradientUnits="userSpaceOnUse" x1="843.241" x2="654.006" xlink:href="#a" y1="186.307" y2="892.542"/><linearGradient id="f" gradientUnits="userSpaceOnUse" x1="840.142" x2="655.568" xlink:href="#a" y1="182.892" y2="871.73"/><linearGradient id="g" gradientUnits="userSpaceOnUse" x1="837.174" x2="656.483" xlink:href="#a" y1="176.392" y2="850.742"/><linearGradient id="h" gradientUnits="userSpaceOnUse" x1="834.298" x2="657.091" xlink:href="#a" y1="168.329" y2="829.674"/><linearGradient id="i" gradientUnits="userSpaceOnUse" x1="831.467" x2="657.502" xlink:href="#a" y1="159.305" y2="808.553"/><linearGradient id="j" gradientUnits="userSpaceOnUse" x1="828.662" x2="657.753" xlink:href="#a" y1="149.52" y2="787.361"/><linearGradient id="k" gradientUnits="userSpaceOnUse" x1="825.881" x2="657.888" xlink:href="#a" y1="139.21" y2="766.166"/><linearGradient id="l" gradientUnits="userSpaceOnUse" x1="823.118" x2="657.941" xlink:href="#a" y1="128.497" y2="744.947"/><linearGradient id="m" gradientUnits="userSpaceOnUse" x1="820.377" x2="657.946" xlink:href="#a" y1="117.518" y2="723.717"/><linearGradient id="n" gradientUnits="userSpaceOnUse" x1="817.631" x2="657.872" xlink:href="#a" y1="106.234" y2="702.466"/><linearGradient id="o" gradientUnits="userSpaceOnUse" x1="814.912" x2="657.776" xlink:href="#a" y1="94.7674" y2="681.209"/><linearGradient id="p" gradientUnits="userSpaceOnUse" x1="812.192" x2="657.643" xlink:href="#a" y1="83.1562" y2="659.941"/><linearGradient id="q" gradientUnits="userSpaceOnUse" x1="809.478" x2="657.47" xlink:href="#a" y1="71.3606" y2="638.664"/><linearGradient id="r" gradientUnits="userSpaceOnUse" x1="806.771" x2="657.279" xlink:href="#a" y1="59.4718" y2="617.381"/><linearGradient id="s" gradientUnits="userSpaceOnUse" x1="804.086" x2="657.082" xlink:href="#a" y1="47.4707" y2="596.096"/><linearGradient id="t" gradientUnits="userSpaceOnUse" x1="801.397" x2="656.86" xlink:href="#a" y1="35.3887" y2="574.806"/><linearGradient id="u" gradientUnits="userSpaceOnUse" x1="798.703" x2="656.607" xlink:href="#a" y1="23.1974" y2="553.506"/><linearGradient id="v" gradientUnits="userSpaceOnUse" x1="799.178" x2="658.235" xlink:href="#a" y1="12.0729" y2="538.08"/><linearGradient id="w" gradientUnits="userSpaceOnUse" x1="800.798" x2="654.229" xlink:href="#a" y1=".639832" y2="547.641"/><g stroke-miterlimit="10" stroke-width="2"><path d="m-54.8171 766.309c1073.7971-181.639 1175.6271-575.52 1779.3471-375.585" opacity=".8" stroke="url(#b)"/><path d="m-57.8527 744.263c388.9547-65.793 674.0137-149.343 892.2717-244.363 195.211-84.979 344.111-161.564 513.041-163.563 118.5-1.401 228.42 26.505 373.7 74.607" opacity=".8" stroke="url(#c)"/><path d="m-60.8895 722.218c369.5085-62.495 671.8025-129.637 900.0275-233.696 189.532-86.421 341.802-169.275 516.492-155.729 124.94 9.686 224.15 52.672 362.15 98.371" opacity=".8" stroke="url(#d)"/><path d="m-63.9257 700.173c350.0637-59.224 669.5857-109.8 907.7837-223.056 183.952-87.464 339.632-176.661 519.932-147.899 131.45 20.978 219.86 78.863 350.59 122.161" opacity=".8" stroke="url(#e)"/><path d="m-66.9611 678.128c330.6171-55.925 667.3991-89.767 915.5401-212.389 178.451-88.216 337.511-183.761 523.371-140.069 138 32.444 215.56 105.05 339.04 145.925" opacity=".8" stroke="url(#f)"/><path d="m-70.0164 656.077c311.1714-52.627 665.2444-69.567 923.2964-201.749 173.06-88.622 335.45-190.583 526.83-132.209 144.61 44.11 211.28 131.217 327.48 169.716" opacity=".8" stroke="url(#g)"/><path d="m-73.053 634.032c291.726-49.355 663.141-49.192 931.073-191.103 167.71-88.827 333.39-197.163 530.24-124.384 151.22 55.907 207 157.408 315.96 193.484" opacity=".8" stroke="url(#h)"/><path d="m-76.0886 611.988c272.2796-46.058 661.0656-28.597 938.8286-180.437 162.43-88.801 331.3-203.589 533.7-116.523 157.8 67.863 202.71 183.601 304.4 217.275" opacity=".8" stroke="url(#i)"/><path d="m-79.1234 589.916c252.8144-42.765 659.0594-7.769 946.5854-169.796 157.228-88.57 329.208-209.806 537.138-108.668 164.37 79.946 198.41 209.762 292.84 241.039" opacity=".8" stroke="url(#j)"/><path d="m-82.1593 567.871c233.3683-39.467 657.1413 13.268 954.3413-159.13 152.068-88.216 327.068-215.952 540.578-100.864 170.91 92.128 194.13 235.954 281.29 264.829" opacity=".8" stroke="url(#k)"/><path d="m-85.1947 545.825c213.9237-36.195 655.3097 34.569 962.0987-148.489 146.986-87.685 324.886-221.979 544.016-93.035 177.41 104.405 189.84 262.146 269.73 288.593" opacity=".8" stroke="url(#l)"/><path d="m-88.2319 523.779c194.4769-32.896 653.5839 56.14 969.8539-137.821 141.938-87.038 322.688-227.905 547.448-85.18 183.89 116.783 185.57 288.339 258.2 312.389" opacity=".8" stroke="url(#m)"/><path d="m-91.2863 501.729c175.0311-29.598 651.9633 77.978 977.6103-127.181 136.936-86.269 320.416-233.793 550.906-77.345 190.35 129.182 181.27 314.499 246.65 336.153" opacity=".8" stroke="url(#n)"/><path d="m-94.3236 479.684c155.5862-26.326 650.4856 100.147 985.3876-116.535 131.976-85.386 318.126-239.582 554.346-69.516 196.74 141.671 176.98 340.692 235.09 359.944" opacity=".8" stroke="url(#o)"/><path d="m-97.3586 457.639c136.14-23.029 649.1676 122.679 993.1426-105.869 127.066-84.433 315.776-245.36 557.776-61.66 203.11 154.181 172.7 366.884 223.55 383.708" opacity=".8" stroke="url(#p)"/><path d="m-100.395 435.594c116.6936-19.73 648.011 145.548 1000.899-95.228 122.196-83.365 313.406-251.1162 561.216-53.83 209.46 166.737 168.42 393.076 211.99 407.498" opacity=".8" stroke="url(#q)"/><path d="m-103.431 413.549c97.249-16.459 647.072 168.848 1008.656-84.561 117.365-82.26 310.965-256.8365 564.655-46.001 215.75 179.305 164.14 419.242 200.43 431.262" opacity=".8" stroke="url(#r)"/><path d="m-106.468 391.504c77.7837-13.166 646.328 192.601 1016.413-73.921 112.585-81.06 308.535-262.5297 568.115-38.14 222.03 191.926 159.83 445.429 188.9 455.057" opacity=".8" stroke="url(#s)"/><path d="m-109.504 369.459c58.3376-9.868 645.857 216.827 1024.188-63.249 107.836-79.824 306.046-268.2121 571.546-30.311 228.29 204.536 155.55 471.595 177.35 478.822" opacity=".8" stroke="url(#t)"/><path d="m-112.539 347.414c38.891-6.57 645.656 241.605 1031.944-52.609 103.135-78.551 303.525-273.8735 574.985-22.481 234.49 217.162 151.27 497.787 165.8 502.585" opacity=".8" stroke="url(#u)"/><path d="m-115.594 325.362c19.4458-3.298 645.801 266.984 1039.701-41.968 98.463-77.214 300.713-278.92274 578.423-14.652 240.46 230.337 146.99 523.98 154.24 526.376" opacity=".8" stroke="url(#v)"/><path d="m-118.631 303.318s646.29 293.014 1047.457-31.301c93.834-75.868 298.424-285.1913 581.864-6.796 246.86 242.482 142.68 550.139 142.68 550.139" opacity=".8" stroke="url(#w)"/></g></svg>