<svg width="37" height="37" viewBox="0 0 37 37" fill="none" xmlns="http://www.w3.org/2000/svg">
<path d="M0 0H37V37H0V0Z" fill="#FEEDDD"/>
<path d="M20.8589 0H37.0001V15.9563H36.9076L36.7226 15.4938L36.1214 13.1813L35.6126 11.655L35.1039 10.4987L34.6414 9.5275L34.0864 8.6025L33.5776 7.8625L33.2076 7.35375L32.8376 6.89125L32.4214 6.3825L31.7739 5.68875L30.9876 4.9025L30.6176 4.57875L29.8776 3.9775L29.1376 3.4225L28.0276 2.6825L27.2876 2.26625L26.2239 1.71125L24.9751 1.2025L23.3101 0.69375L21.9689 0.32375L20.9051 0.0925L20.8589 0Z" fill="#FFFEFE"/>
<path d="M0 20.9513L0.13875 21.09L0.37 21.9225L0.87875 23.9575L1.2025 24.9288L1.665 26.0388L2.1275 27.01L2.6825 27.9813L3.2375 28.86L3.83875 29.6925L4.44 30.4325L4.81 30.895L6.24375 32.3288L7.26125 33.1613L8.09375 33.7625L9.065 34.3638L10.175 34.965L11.2388 35.4738L12.58 35.9825L13.9675 36.3988L15.5863 36.7688L16.1413 36.9075L16.1875 37H0V20.9513Z" fill="#FFFEFE"/>
<path d="M36.9535 20.9513H36.9997V37H20.7197L20.766 36.9075L21.7372 36.6763L22.7547 36.4913L23.911 36.1675L25.1135 35.7513L26.501 35.15L27.3797 34.6875L28.166 34.225L28.721 33.855L29.5072 33.3L30.1547 32.7913L30.756 32.2825L31.5422 31.5425L31.866 31.2188L32.1897 30.8488L32.6522 30.34L33.2535 29.5538L33.8547 28.7213L34.3635 27.8888L35.011 26.7325L35.4272 25.8538L35.936 24.5588L36.3522 23.2175L36.6297 22.1538L36.861 21.1363L36.9535 20.9513Z" fill="#FFFEFE"/>
<path d="M0 0H16.1413L15.9563 0.13875L14.8 0.41625L13.505 0.69375L12.58 0.97125L11.5625 1.34125L10.5913 1.7575L9.85125 2.1275L8.88 2.6825L8.18625 3.145L7.4 3.7L6.7525 4.20875L6.105 4.76375L5.735 5.13375L5.365 5.4575L4.67125 6.1975L4.11625 6.845L3.46875 7.72375L2.72875 8.83375L2.26625 9.62L1.89625 10.36L1.34125 11.5625L0.97125 12.58L0.555 14.1525L0.32375 15.2625L0.13875 16.0487L0 16.1875V0Z" fill="#FFFEFE"/>
<path d="M12.9498 13.2738H17.6673L18.0373 13.5976L18.2686 14.0601L18.3148 14.4301L18.1298 14.8001L17.8061 15.1238L17.6211 15.2163L17.0198 15.2626L13.0423 15.3088L12.6723 15.4938L12.4411 15.8638V16.3726L12.6261 16.6501L12.8111 16.7888L13.4586 16.9276L15.2623 17.1588L16.5573 17.3438L17.2973 17.5751L17.7136 17.8063L18.1761 18.2226L18.4998 18.6851L18.7311 19.1938L18.8698 19.8413V20.3963L18.7773 20.8588L18.5461 21.4601L18.1298 22.0613L17.8061 22.3851L17.3436 22.6626L16.7886 22.8938L16.5573 22.9401L14.5686 22.9863H8.55605L7.35355 22.9401L7.0298 22.8013L6.98355 22.6626L6.8448 22.6163L6.70605 22.2926V21.6913L6.89105 21.2751L7.16855 21.0438L7.3073 20.9976L8.9723 20.9513H15.9098L16.3261 20.9051L16.6036 20.7201L16.8348 20.2576L16.7886 19.8413L16.6036 19.5638L16.4186 19.4251L15.6323 19.2863L12.6261 18.8701L12.0248 18.6851L11.5161 18.4076L10.9611 17.8526L10.6373 17.2976L10.4523 16.7426L10.4061 16.5113V15.6788L10.5448 15.1238L10.8686 14.4763L11.2386 14.0138L11.8398 13.5976L12.3948 13.3663L12.9498 13.2738Z" fill="#F2A371"/>
<path d="M25.0213 13.1813H25.5763L25.8538 13.32L26.1313 13.6438L26.2701 14.0138V14.4763L26.0388 14.8463L25.6226 15.1238L24.6513 15.4475L24.1426 15.7713L23.7263 16.1413L23.3101 16.7888L23.1251 17.2513L23.0326 17.6675V18.5463L23.3101 19.3788L23.5876 19.8875L23.9113 20.2575L24.5126 20.6738L25.2526 20.9513L25.4376 20.9975H26.4088L27.1026 20.7663L27.7038 20.4425L28.2588 19.8875L28.5826 19.425L28.8601 19.1938L29.0451 19.1013H29.5076L29.8776 19.2863L30.2013 19.7025L30.2938 19.98V20.3963L30.0626 20.8588L29.5538 21.46L29.0451 21.9688L28.3513 22.4313L27.3801 22.8475L26.6401 23.0325L26.1776 23.0788H25.6688L24.9751 22.9863L24.0501 22.7088L23.2638 22.2925L22.6626 21.83L22.2463 21.46L21.7838 20.8588L21.4138 20.1188L21.1363 19.3788L20.9976 18.5925V17.4825L21.2288 16.5113L21.5526 15.7713L22.0151 15.0313L22.5238 14.4763L22.9401 14.1063L23.7263 13.6438L24.2351 13.4125L25.0213 13.1813Z" fill="#F2A371"/>
</svg>
